<svg width="530" height="530" viewBox="0 0 530 530" fill="none" xmlns="http://www.w3.org/2000/svg">
<g filter="url(#filter0_d_8_104)">
<path d="M5 145C5 140.582 8.58172 137 13 137H121C125.418 137 129 140.582 129 145V253C129 257.418 125.418 261 121 261H13C8.58172 261 5 257.418 5 253V145Z" fill="url(#paint0_radial_8_104)" shape-rendering="crispEdges"/>
<path d="M87 199C87 210.046 78.0457 219 67 219C55.9543 219 47 210.046 47 199C47 187.954 55.9543 179 67 179C78.0457 179 87 187.954 87 199Z" fill="white" shape-rendering="crispEdges"/>
<path d="M5 145C5 140.582 8.58172 137 13 137H121C125.418 137 129 140.582 129 145V253C129 257.418 125.418 261 121 261H13C8.58172 261 5 257.418 5 253V145Z" stroke="white" stroke-width="2" shape-rendering="crispEdges"/>
<path d="M87 199C87 210.046 78.0457 219 67 219C55.9543 219 47 210.046 47 199C47 187.954 55.9543 179 67 179C78.0457 179 87 187.954 87 199Z" stroke="white" stroke-width="2" shape-rendering="crispEdges"/>
<path d="M112 199C112 223.853 91.8528 244 67 244C42.1472 244 22 223.853 22 199C22 174.147 42.1472 154 67 154C91.8528 154 112 174.147 112 199Z" stroke="white" stroke-width="2" shape-rendering="crispEdges"/>
</g>
<g filter="url(#filter1_d_8_104)">
<path d="M5 409C5 404.582 8.58172 401 13 401H121C125.418 401 129 404.582 129 409V517C129 521.418 125.418 525 121 525H13C8.58172 525 5 521.418 5 517V409Z" fill="url(#paint1_radial_8_104)" shape-rendering="crispEdges"/>
<path d="M87 463C87 474.046 78.0457 483 67 483C55.9543 483 47 474.046 47 463C47 451.954 55.9543 443 67 443C78.0457 443 87 451.954 87 463Z" fill="white" shape-rendering="crispEdges"/>
<path d="M5 409C5 404.582 8.58172 401 13 401H121C125.418 401 129 404.582 129 409V517C129 521.418 125.418 525 121 525H13C8.58172 525 5 521.418 5 517V409Z" stroke="white" stroke-width="2" shape-rendering="crispEdges"/>
<path d="M87 463C87 474.046 78.0457 483 67 483C55.9543 483 47 474.046 47 463C47 451.954 55.9543 443 67 443C78.0457 443 87 451.954 87 463Z" stroke="white" stroke-width="2" shape-rendering="crispEdges"/>
<path d="M112 463C112 487.853 91.8528 508 67 508C42.1472 508 22 487.853 22 463C22 438.147 42.1472 418 67 418C91.8528 418 112 438.147 112 463Z" stroke="white" stroke-width="2" shape-rendering="crispEdges"/>
</g>
<g filter="url(#filter2_d_8_104)">
<path d="M5 13C5 8.58172 8.58172 5 13 5H121C125.418 5 129 8.58172 129 13V121C129 125.418 125.418 129 121 129H13C8.58172 129 5 125.418 5 121V13Z" fill="url(#paint2_radial_8_104)" shape-rendering="crispEdges"/>
<path d="M87 67C87 78.0457 78.0457 87 67 87C55.9543 87 47 78.0457 47 67C47 55.9543 55.9543 47 67 47C78.0457 47 87 55.9543 87 67Z" fill="white" shape-rendering="crispEdges"/>
<path d="M5 13C5 8.58172 8.58172 5 13 5H121C125.418 5 129 8.58172 129 13V121C129 125.418 125.418 129 121 129H13C8.58172 129 5 125.418 5 121V13Z" stroke="white" stroke-width="2" shape-rendering="crispEdges"/>
<path d="M87 67C87 78.0457 78.0457 87 67 87C55.9543 87 47 78.0457 47 67C47 55.9543 55.9543 47 67 47C78.0457 47 87 55.9543 87 67Z" stroke="white" stroke-width="2" shape-rendering="crispEdges"/>
<path d="M112 67C112 91.8528 91.8528 112 67 112C42.1472 112 22 91.8528 22 67C22 42.1472 42.1472 22 67 22C91.8528 22 112 42.1472 112 67Z" stroke="white" stroke-width="2" shape-rendering="crispEdges"/>
</g>
<g filter="url(#filter3_d_8_104)">
<path d="M5 277C5 272.582 8.58172 269 13 269H121C125.418 269 129 272.582 129 277V385C129 389.418 125.418 393 121 393H13C8.58172 393 5 389.418 5 385V277Z" fill="url(#paint3_radial_8_104)" shape-rendering="crispEdges"/>
<path d="M87 331C87 342.046 78.0457 351 67 351C55.9543 351 47 342.046 47 331C47 319.954 55.9543 311 67 311C78.0457 311 87 319.954 87 331Z" fill="white" shape-rendering="crispEdges"/>
<path d="M5 277C5 272.582 8.58172 269 13 269H121C125.418 269 129 272.582 129 277V385C129 389.418 125.418 393 121 393H13C8.58172 393 5 389.418 5 385V277Z" stroke="white" stroke-width="2" shape-rendering="crispEdges"/>
<path d="M87 331C87 342.046 78.0457 351 67 351C55.9543 351 47 342.046 47 331C47 319.954 55.9543 311 67 311C78.0457 311 87 319.954 87 331Z" stroke="white" stroke-width="2" shape-rendering="crispEdges"/>
<path d="M112 331C112 355.853 91.8528 376 67 376C42.1472 376 22 355.853 22 331C22 306.147 42.1472 286 67 286C91.8528 286 112 306.147 112 331Z" stroke="white" stroke-width="2" shape-rendering="crispEdges"/>
</g>
<g filter="url(#filter4_d_8_104)">
<path d="M269 145C269 140.582 272.582 137 277 137H385C389.418 137 393 140.582 393 145V253C393 257.418 389.418 261 385 261H277C272.582 261 269 257.418 269 253V145Z" fill="url(#paint4_radial_8_104)" shape-rendering="crispEdges"/>
<path d="M351 199C351 210.046 342.046 219 331 219C319.954 219 311 210.046 311 199C311 187.954 319.954 179 331 179C342.046 179 351 187.954 351 199Z" fill="white" shape-rendering="crispEdges"/>
<path d="M269 145C269 140.582 272.582 137 277 137H385C389.418 137 393 140.582 393 145V253C393 257.418 389.418 261 385 261H277C272.582 261 269 257.418 269 253V145Z" stroke="white" stroke-width="2" shape-rendering="crispEdges"/>
<path d="M351 199C351 210.046 342.046 219 331 219C319.954 219 311 210.046 311 199C311 187.954 319.954 179 331 179C342.046 179 351 187.954 351 199Z" stroke="white" stroke-width="2" shape-rendering="crispEdges"/>
<path d="M376 199C376 223.853 355.853 244 331 244C306.147 244 286 223.853 286 199C286 174.147 306.147 154 331 154C355.853 154 376 174.147 376 199Z" stroke="white" stroke-width="2" shape-rendering="crispEdges"/>
</g>
<g filter="url(#filter5_d_8_104)">
<path d="M269 409C269 404.582 272.582 401 277 401H385C389.418 401 393 404.582 393 409V517C393 521.418 389.418 525 385 525H277C272.582 525 269 521.418 269 517V409Z" fill="url(#paint5_radial_8_104)" shape-rendering="crispEdges"/>
<path d="M351 463C351 474.046 342.046 483 331 483C319.954 483 311 474.046 311 463C311 451.954 319.954 443 331 443C342.046 443 351 451.954 351 463Z" fill="white" shape-rendering="crispEdges"/>
<path d="M269 409C269 404.582 272.582 401 277 401H385C389.418 401 393 404.582 393 409V517C393 521.418 389.418 525 385 525H277C272.582 525 269 521.418 269 517V409Z" stroke="white" stroke-width="2" shape-rendering="crispEdges"/>
<path d="M351 463C351 474.046 342.046 483 331 483C319.954 483 311 474.046 311 463C311 451.954 319.954 443 331 443C342.046 443 351 451.954 351 463Z" stroke="white" stroke-width="2" shape-rendering="crispEdges"/>
<path d="M376 463C376 487.853 355.853 508 331 508C306.147 508 286 487.853 286 463C286 438.147 306.147 418 331 418C355.853 418 376 438.147 376 463Z" stroke="white" stroke-width="2" shape-rendering="crispEdges"/>
</g>
<g filter="url(#filter6_d_8_104)">
<path d="M269 13C269 8.58172 272.582 5 277 5H385C389.418 5 393 8.58172 393 13V121C393 125.418 389.418 129 385 129H277C272.582 129 269 125.418 269 121V13Z" fill="url(#paint6_radial_8_104)" shape-rendering="crispEdges"/>
<path d="M351 67C351 78.0457 342.046 87 331 87C319.954 87 311 78.0457 311 67C311 55.9543 319.954 47 331 47C342.046 47 351 55.9543 351 67Z" fill="white" shape-rendering="crispEdges"/>
<path d="M269 13C269 8.58172 272.582 5 277 5H385C389.418 5 393 8.58172 393 13V121C393 125.418 389.418 129 385 129H277C272.582 129 269 125.418 269 121V13Z" stroke="white" stroke-width="2" shape-rendering="crispEdges"/>
<path d="M351 67C351 78.0457 342.046 87 331 87C319.954 87 311 78.0457 311 67C311 55.9543 319.954 47 331 47C342.046 47 351 55.9543 351 67Z" stroke="white" stroke-width="2" shape-rendering="crispEdges"/>
<path d="M376 67C376 91.8528 355.853 112 331 112C306.147 112 286 91.8528 286 67C286 42.1472 306.147 22 331 22C355.853 22 376 42.1472 376 67Z" stroke="white" stroke-width="2" shape-rendering="crispEdges"/>
</g>
<g filter="url(#filter7_d_8_104)">
<path d="M269 277C269 272.582 272.582 269 277 269H385C389.418 269 393 272.582 393 277V385C393 389.418 389.418 393 385 393H277C272.582 393 269 389.418 269 385V277Z" fill="url(#paint7_radial_8_104)" shape-rendering="crispEdges"/>
<path d="M351 331C351 342.046 342.046 351 331 351C319.954 351 311 342.046 311 331C311 319.954 319.954 311 331 311C342.046 311 351 319.954 351 331Z" fill="white" shape-rendering="crispEdges"/>
<path d="M269 277C269 272.582 272.582 269 277 269H385C389.418 269 393 272.582 393 277V385C393 389.418 389.418 393 385 393H277C272.582 393 269 389.418 269 385V277Z" stroke="white" stroke-width="2" shape-rendering="crispEdges"/>
<path d="M351 331C351 342.046 342.046 351 331 351C319.954 351 311 342.046 311 331C311 319.954 319.954 311 331 311C342.046 311 351 319.954 351 331Z" stroke="white" stroke-width="2" shape-rendering="crispEdges"/>
<path d="M376 331C376 355.853 355.853 376 331 376C306.147 376 286 355.853 286 331C286 306.147 306.147 286 331 286C355.853 286 376 306.147 376 331Z" stroke="white" stroke-width="2" shape-rendering="crispEdges"/>
</g>
<g filter="url(#filter8_d_8_104)">
<path d="M137 145C137 140.582 140.582 137 145 137H253C257.418 137 261 140.582 261 145V253C261 257.418 257.418 261 253 261H145C140.582 261 137 257.418 137 253V145Z" fill="url(#paint8_radial_8_104)" shape-rendering="crispEdges"/>
<path d="M219 199C219 210.046 210.046 219 199 219C187.954 219 179 210.046 179 199C179 187.954 187.954 179 199 179C210.046 179 219 187.954 219 199Z" fill="white" shape-rendering="crispEdges"/>
<path d="M137 145C137 140.582 140.582 137 145 137H253C257.418 137 261 140.582 261 145V253C261 257.418 257.418 261 253 261H145C140.582 261 137 257.418 137 253V145Z" stroke="white" stroke-width="2" shape-rendering="crispEdges"/>
<path d="M219 199C219 210.046 210.046 219 199 219C187.954 219 179 210.046 179 199C179 187.954 187.954 179 199 179C210.046 179 219 187.954 219 199Z" stroke="white" stroke-width="2" shape-rendering="crispEdges"/>
<path d="M244 199C244 223.853 223.853 244 199 244C174.147 244 154 223.853 154 199C154 174.147 174.147 154 199 154C223.853 154 244 174.147 244 199Z" stroke="white" stroke-width="2" shape-rendering="crispEdges"/>
</g>
<g filter="url(#filter9_d_8_104)">
<path d="M137 409C137 404.582 140.582 401 145 401H253C257.418 401 261 404.582 261 409V517C261 521.418 257.418 525 253 525H145C140.582 525 137 521.418 137 517V409Z" fill="url(#paint9_radial_8_104)" shape-rendering="crispEdges"/>
<path d="M219 463C219 474.046 210.046 483 199 483C187.954 483 179 474.046 179 463C179 451.954 187.954 443 199 443C210.046 443 219 451.954 219 463Z" fill="white" shape-rendering="crispEdges"/>
<path d="M137 409C137 404.582 140.582 401 145 401H253C257.418 401 261 404.582 261 409V517C261 521.418 257.418 525 253 525H145C140.582 525 137 521.418 137 517V409Z" stroke="white" stroke-width="2" shape-rendering="crispEdges"/>
<path d="M219 463C219 474.046 210.046 483 199 483C187.954 483 179 474.046 179 463C179 451.954 187.954 443 199 443C210.046 443 219 451.954 219 463Z" stroke="white" stroke-width="2" shape-rendering="crispEdges"/>
<path d="M244 463C244 487.853 223.853 508 199 508C174.147 508 154 487.853 154 463C154 438.147 174.147 418 199 418C223.853 418 244 438.147 244 463Z" stroke="white" stroke-width="2" shape-rendering="crispEdges"/>
</g>
<g filter="url(#filter10_d_8_104)">
<path d="M137 13C137 8.58172 140.582 5 145 5H253C257.418 5 261 8.58172 261 13V121C261 125.418 257.418 129 253 129H145C140.582 129 137 125.418 137 121V13Z" fill="url(#paint10_radial_8_104)" shape-rendering="crispEdges"/>
<path d="M219 67C219 78.0457 210.046 87 199 87C187.954 87 179 78.0457 179 67C179 55.9543 187.954 47 199 47C210.046 47 219 55.9543 219 67Z" fill="white" shape-rendering="crispEdges"/>
<path d="M137 13C137 8.58172 140.582 5 145 5H253C257.418 5 261 8.58172 261 13V121C261 125.418 257.418 129 253 129H145C140.582 129 137 125.418 137 121V13Z" stroke="white" stroke-width="2" shape-rendering="crispEdges"/>
<path d="M219 67C219 78.0457 210.046 87 199 87C187.954 87 179 78.0457 179 67C179 55.9543 187.954 47 199 47C210.046 47 219 55.9543 219 67Z" stroke="white" stroke-width="2" shape-rendering="crispEdges"/>
<path d="M244 67C244 91.8528 223.853 112 199 112C174.147 112 154 91.8528 154 67C154 42.1472 174.147 22 199 22C223.853 22 244 42.1472 244 67Z" stroke="white" stroke-width="2" shape-rendering="crispEdges"/>
</g>
<g filter="url(#filter11_d_8_104)">
<path d="M137 277C137 272.582 140.582 269 145 269H253C257.418 269 261 272.582 261 277V385C261 389.418 257.418 393 253 393H145C140.582 393 137 389.418 137 385V277Z" fill="url(#paint11_radial_8_104)" shape-rendering="crispEdges"/>
<path d="M219 331C219 342.046 210.046 351 199 351C187.954 351 179 342.046 179 331C179 319.954 187.954 311 199 311C210.046 311 219 319.954 219 331Z" fill="white" shape-rendering="crispEdges"/>
<path d="M137 277C137 272.582 140.582 269 145 269H253C257.418 269 261 272.582 261 277V385C261 389.418 257.418 393 253 393H145C140.582 393 137 389.418 137 385V277Z" stroke="white" stroke-width="2" shape-rendering="crispEdges"/>
<path d="M219 331C219 342.046 210.046 351 199 351C187.954 351 179 342.046 179 331C179 319.954 187.954 311 199 311C210.046 311 219 319.954 219 331Z" stroke="white" stroke-width="2" shape-rendering="crispEdges"/>
<path d="M244 331C244 355.853 223.853 376 199 376C174.147 376 154 355.853 154 331C154 306.147 174.147 286 199 286C223.853 286 244 306.147 244 331Z" stroke="white" stroke-width="2" shape-rendering="crispEdges"/>
</g>
<g filter="url(#filter12_d_8_104)">
<path d="M401 145C401 140.582 404.582 137 409 137H517C521.418 137 525 140.582 525 145V253C525 257.418 521.418 261 517 261H409C404.582 261 401 257.418 401 253V145Z" fill="url(#paint12_radial_8_104)" shape-rendering="crispEdges"/>
<path d="M483 199C483 210.046 474.046 219 463 219C451.954 219 443 210.046 443 199C443 187.954 451.954 179 463 179C474.046 179 483 187.954 483 199Z" fill="white" shape-rendering="crispEdges"/>
<path d="M401 145C401 140.582 404.582 137 409 137H517C521.418 137 525 140.582 525 145V253C525 257.418 521.418 261 517 261H409C404.582 261 401 257.418 401 253V145Z" stroke="white" stroke-width="2" shape-rendering="crispEdges"/>
<path d="M483 199C483 210.046 474.046 219 463 219C451.954 219 443 210.046 443 199C443 187.954 451.954 179 463 179C474.046 179 483 187.954 483 199Z" stroke="white" stroke-width="2" shape-rendering="crispEdges"/>
<path d="M508 199C508 223.853 487.853 244 463 244C438.147 244 418 223.853 418 199C418 174.147 438.147 154 463 154C487.853 154 508 174.147 508 199Z" stroke="white" stroke-width="2" shape-rendering="crispEdges"/>
</g>
<g filter="url(#filter13_d_8_104)">
<path d="M401 13C401 8.58172 404.582 5 409 5H517C521.418 5 525 8.58172 525 13V121C525 125.418 521.418 129 517 129H409C404.582 129 401 125.418 401 121V13Z" fill="url(#paint13_radial_8_104)" shape-rendering="crispEdges"/>
<path d="M483 67C483 78.0457 474.046 87 463 87C451.954 87 443 78.0457 443 67C443 55.9543 451.954 47 463 47C474.046 47 483 55.9543 483 67Z" fill="white" shape-rendering="crispEdges"/>
<path d="M401 13C401 8.58172 404.582 5 409 5H517C521.418 5 525 8.58172 525 13V121C525 125.418 521.418 129 517 129H409C404.582 129 401 125.418 401 121V13Z" stroke="white" stroke-width="2" shape-rendering="crispEdges"/>
<path d="M483 67C483 78.0457 474.046 87 463 87C451.954 87 443 78.0457 443 67C443 55.9543 451.954 47 463 47C474.046 47 483 55.9543 483 67Z" stroke="white" stroke-width="2" shape-rendering="crispEdges"/>
<path d="M508 67C508 91.8528 487.853 112 463 112C438.147 112 418 91.8528 418 67C418 42.1472 438.147 22 463 22C487.853 22 508 42.1472 508 67Z" stroke="white" stroke-width="2" shape-rendering="crispEdges"/>
</g>
<g filter="url(#filter14_d_8_104)">
<path d="M401 277C401 272.582 404.582 269 409 269H517C521.418 269 525 272.582 525 277V385C525 389.418 521.418 393 517 393H409C404.582 393 401 389.418 401 385V277Z" fill="url(#paint14_radial_8_104)" shape-rendering="crispEdges"/>
<path d="M483 331C483 342.046 474.046 351 463 351C451.954 351 443 342.046 443 331C443 319.954 451.954 311 463 311C474.046 311 483 319.954 483 331Z" fill="white" shape-rendering="crispEdges"/>
<path d="M401 277C401 272.582 404.582 269 409 269H517C521.418 269 525 272.582 525 277V385C525 389.418 521.418 393 517 393H409C404.582 393 401 389.418 401 385V277Z" stroke="white" stroke-width="2" shape-rendering="crispEdges"/>
<path d="M483 331C483 342.046 474.046 351 463 351C451.954 351 443 342.046 443 331C443 319.954 451.954 311 463 311C474.046 311 483 319.954 483 331Z" stroke="white" stroke-width="2" shape-rendering="crispEdges"/>
<path d="M508 331C508 355.853 487.853 376 463 376C438.147 376 418 355.853 418 331C418 306.147 438.147 286 463 286C487.853 286 508 306.147 508 331Z" stroke="white" stroke-width="2" shape-rendering="crispEdges"/>
</g>
<defs>
<filter id="filter0_d_8_104" x="0" y="132" width="134" height="134" filterUnits="userSpaceOnUse" color-interpolation-filters="sRGB">
<feFlood flood-opacity="0" result="BackgroundImageFix"/>
<feColorMatrix in="SourceAlpha" type="matrix" values="0 0 0 0 0 0 0 0 0 0 0 0 0 0 0 0 0 0 127 0" result="hardAlpha"/>
<feMorphology radius="2" operator="dilate" in="SourceAlpha" result="effect1_dropShadow_8_104"/>
<feOffset/>
<feGaussianBlur stdDeviation="1"/>
<feComposite in2="hardAlpha" operator="out"/>
<feColorMatrix type="matrix" values="0 0 0 0 0 0 0 0 0 0 0 0 0 0 0 0 0 0 0.5 0"/>
<feBlend mode="normal" in2="BackgroundImageFix" result="effect1_dropShadow_8_104"/>
<feBlend mode="normal" in="SourceGraphic" in2="effect1_dropShadow_8_104" result="shape"/>
</filter>
<filter id="filter1_d_8_104" x="0" y="396" width="134" height="134" filterUnits="userSpaceOnUse" color-interpolation-filters="sRGB">
<feFlood flood-opacity="0" result="BackgroundImageFix"/>
<feColorMatrix in="SourceAlpha" type="matrix" values="0 0 0 0 0 0 0 0 0 0 0 0 0 0 0 0 0 0 127 0" result="hardAlpha"/>
<feMorphology radius="2" operator="dilate" in="SourceAlpha" result="effect1_dropShadow_8_104"/>
<feOffset/>
<feGaussianBlur stdDeviation="1"/>
<feComposite in2="hardAlpha" operator="out"/>
<feColorMatrix type="matrix" values="0 0 0 0 0 0 0 0 0 0 0 0 0 0 0 0 0 0 0.5 0"/>
<feBlend mode="normal" in2="BackgroundImageFix" result="effect1_dropShadow_8_104"/>
<feBlend mode="normal" in="SourceGraphic" in2="effect1_dropShadow_8_104" result="shape"/>
</filter>
<filter id="filter2_d_8_104" x="0" y="0" width="134" height="134" filterUnits="userSpaceOnUse" color-interpolation-filters="sRGB">
<feFlood flood-opacity="0" result="BackgroundImageFix"/>
<feColorMatrix in="SourceAlpha" type="matrix" values="0 0 0 0 0 0 0 0 0 0 0 0 0 0 0 0 0 0 127 0" result="hardAlpha"/>
<feMorphology radius="2" operator="dilate" in="SourceAlpha" result="effect1_dropShadow_8_104"/>
<feOffset/>
<feGaussianBlur stdDeviation="1"/>
<feComposite in2="hardAlpha" operator="out"/>
<feColorMatrix type="matrix" values="0 0 0 0 0 0 0 0 0 0 0 0 0 0 0 0 0 0 0.5 0"/>
<feBlend mode="normal" in2="BackgroundImageFix" result="effect1_dropShadow_8_104"/>
<feBlend mode="normal" in="SourceGraphic" in2="effect1_dropShadow_8_104" result="shape"/>
</filter>
<filter id="filter3_d_8_104" x="0" y="264" width="134" height="134" filterUnits="userSpaceOnUse" color-interpolation-filters="sRGB">
<feFlood flood-opacity="0" result="BackgroundImageFix"/>
<feColorMatrix in="SourceAlpha" type="matrix" values="0 0 0 0 0 0 0 0 0 0 0 0 0 0 0 0 0 0 127 0" result="hardAlpha"/>
<feMorphology radius="2" operator="dilate" in="SourceAlpha" result="effect1_dropShadow_8_104"/>
<feOffset/>
<feGaussianBlur stdDeviation="1"/>
<feComposite in2="hardAlpha" operator="out"/>
<feColorMatrix type="matrix" values="0 0 0 0 0 0 0 0 0 0 0 0 0 0 0 0 0 0 0.5 0"/>
<feBlend mode="normal" in2="BackgroundImageFix" result="effect1_dropShadow_8_104"/>
<feBlend mode="normal" in="SourceGraphic" in2="effect1_dropShadow_8_104" result="shape"/>
</filter>
<filter id="filter4_d_8_104" x="264" y="132" width="134" height="134" filterUnits="userSpaceOnUse" color-interpolation-filters="sRGB">
<feFlood flood-opacity="0" result="BackgroundImageFix"/>
<feColorMatrix in="SourceAlpha" type="matrix" values="0 0 0 0 0 0 0 0 0 0 0 0 0 0 0 0 0 0 127 0" result="hardAlpha"/>
<feMorphology radius="2" operator="dilate" in="SourceAlpha" result="effect1_dropShadow_8_104"/>
<feOffset/>
<feGaussianBlur stdDeviation="1"/>
<feComposite in2="hardAlpha" operator="out"/>
<feColorMatrix type="matrix" values="0 0 0 0 0 0 0 0 0 0 0 0 0 0 0 0 0 0 0.5 0"/>
<feBlend mode="normal" in2="BackgroundImageFix" result="effect1_dropShadow_8_104"/>
<feBlend mode="normal" in="SourceGraphic" in2="effect1_dropShadow_8_104" result="shape"/>
</filter>
<filter id="filter5_d_8_104" x="264" y="396" width="134" height="134" filterUnits="userSpaceOnUse" color-interpolation-filters="sRGB">
<feFlood flood-opacity="0" result="BackgroundImageFix"/>
<feColorMatrix in="SourceAlpha" type="matrix" values="0 0 0 0 0 0 0 0 0 0 0 0 0 0 0 0 0 0 127 0" result="hardAlpha"/>
<feMorphology radius="2" operator="dilate" in="SourceAlpha" result="effect1_dropShadow_8_104"/>
<feOffset/>
<feGaussianBlur stdDeviation="1"/>
<feComposite in2="hardAlpha" operator="out"/>
<feColorMatrix type="matrix" values="0 0 0 0 0 0 0 0 0 0 0 0 0 0 0 0 0 0 0.5 0"/>
<feBlend mode="normal" in2="BackgroundImageFix" result="effect1_dropShadow_8_104"/>
<feBlend mode="normal" in="SourceGraphic" in2="effect1_dropShadow_8_104" result="shape"/>
</filter>
<filter id="filter6_d_8_104" x="264" y="0" width="134" height="134" filterUnits="userSpaceOnUse" color-interpolation-filters="sRGB">
<feFlood flood-opacity="0" result="BackgroundImageFix"/>
<feColorMatrix in="SourceAlpha" type="matrix" values="0 0 0 0 0 0 0 0 0 0 0 0 0 0 0 0 0 0 127 0" result="hardAlpha"/>
<feMorphology radius="2" operator="dilate" in="SourceAlpha" result="effect1_dropShadow_8_104"/>
<feOffset/>
<feGaussianBlur stdDeviation="1"/>
<feComposite in2="hardAlpha" operator="out"/>
<feColorMatrix type="matrix" values="0 0 0 0 0 0 0 0 0 0 0 0 0 0 0 0 0 0 0.5 0"/>
<feBlend mode="normal" in2="BackgroundImageFix" result="effect1_dropShadow_8_104"/>
<feBlend mode="normal" in="SourceGraphic" in2="effect1_dropShadow_8_104" result="shape"/>
</filter>
<filter id="filter7_d_8_104" x="264" y="264" width="134" height="134" filterUnits="userSpaceOnUse" color-interpolation-filters="sRGB">
<feFlood flood-opacity="0" result="BackgroundImageFix"/>
<feColorMatrix in="SourceAlpha" type="matrix" values="0 0 0 0 0 0 0 0 0 0 0 0 0 0 0 0 0 0 127 0" result="hardAlpha"/>
<feMorphology radius="2" operator="dilate" in="SourceAlpha" result="effect1_dropShadow_8_104"/>
<feOffset/>
<feGaussianBlur stdDeviation="1"/>
<feComposite in2="hardAlpha" operator="out"/>
<feColorMatrix type="matrix" values="0 0 0 0 0 0 0 0 0 0 0 0 0 0 0 0 0 0 0.5 0"/>
<feBlend mode="normal" in2="BackgroundImageFix" result="effect1_dropShadow_8_104"/>
<feBlend mode="normal" in="SourceGraphic" in2="effect1_dropShadow_8_104" result="shape"/>
</filter>
<filter id="filter8_d_8_104" x="132" y="132" width="134" height="134" filterUnits="userSpaceOnUse" color-interpolation-filters="sRGB">
<feFlood flood-opacity="0" result="BackgroundImageFix"/>
<feColorMatrix in="SourceAlpha" type="matrix" values="0 0 0 0 0 0 0 0 0 0 0 0 0 0 0 0 0 0 127 0" result="hardAlpha"/>
<feMorphology radius="2" operator="dilate" in="SourceAlpha" result="effect1_dropShadow_8_104"/>
<feOffset/>
<feGaussianBlur stdDeviation="1"/>
<feComposite in2="hardAlpha" operator="out"/>
<feColorMatrix type="matrix" values="0 0 0 0 0 0 0 0 0 0 0 0 0 0 0 0 0 0 0.5 0"/>
<feBlend mode="normal" in2="BackgroundImageFix" result="effect1_dropShadow_8_104"/>
<feBlend mode="normal" in="SourceGraphic" in2="effect1_dropShadow_8_104" result="shape"/>
</filter>
<filter id="filter9_d_8_104" x="132" y="396" width="134" height="134" filterUnits="userSpaceOnUse" color-interpolation-filters="sRGB">
<feFlood flood-opacity="0" result="BackgroundImageFix"/>
<feColorMatrix in="SourceAlpha" type="matrix" values="0 0 0 0 0 0 0 0 0 0 0 0 0 0 0 0 0 0 127 0" result="hardAlpha"/>
<feMorphology radius="2" operator="dilate" in="SourceAlpha" result="effect1_dropShadow_8_104"/>
<feOffset/>
<feGaussianBlur stdDeviation="1"/>
<feComposite in2="hardAlpha" operator="out"/>
<feColorMatrix type="matrix" values="0 0 0 0 0 0 0 0 0 0 0 0 0 0 0 0 0 0 0.5 0"/>
<feBlend mode="normal" in2="BackgroundImageFix" result="effect1_dropShadow_8_104"/>
<feBlend mode="normal" in="SourceGraphic" in2="effect1_dropShadow_8_104" result="shape"/>
</filter>
<filter id="filter10_d_8_104" x="132" y="0" width="134" height="134" filterUnits="userSpaceOnUse" color-interpolation-filters="sRGB">
<feFlood flood-opacity="0" result="BackgroundImageFix"/>
<feColorMatrix in="SourceAlpha" type="matrix" values="0 0 0 0 0 0 0 0 0 0 0 0 0 0 0 0 0 0 127 0" result="hardAlpha"/>
<feMorphology radius="2" operator="dilate" in="SourceAlpha" result="effect1_dropShadow_8_104"/>
<feOffset/>
<feGaussianBlur stdDeviation="1"/>
<feComposite in2="hardAlpha" operator="out"/>
<feColorMatrix type="matrix" values="0 0 0 0 0 0 0 0 0 0 0 0 0 0 0 0 0 0 0.5 0"/>
<feBlend mode="normal" in2="BackgroundImageFix" result="effect1_dropShadow_8_104"/>
<feBlend mode="normal" in="SourceGraphic" in2="effect1_dropShadow_8_104" result="shape"/>
</filter>
<filter id="filter11_d_8_104" x="132" y="264" width="134" height="134" filterUnits="userSpaceOnUse" color-interpolation-filters="sRGB">
<feFlood flood-opacity="0" result="BackgroundImageFix"/>
<feColorMatrix in="SourceAlpha" type="matrix" values="0 0 0 0 0 0 0 0 0 0 0 0 0 0 0 0 0 0 127 0" result="hardAlpha"/>
<feMorphology radius="2" operator="dilate" in="SourceAlpha" result="effect1_dropShadow_8_104"/>
<feOffset/>
<feGaussianBlur stdDeviation="1"/>
<feComposite in2="hardAlpha" operator="out"/>
<feColorMatrix type="matrix" values="0 0 0 0 0 0 0 0 0 0 0 0 0 0 0 0 0 0 0.5 0"/>
<feBlend mode="normal" in2="BackgroundImageFix" result="effect1_dropShadow_8_104"/>
<feBlend mode="normal" in="SourceGraphic" in2="effect1_dropShadow_8_104" result="shape"/>
</filter>
<filter id="filter12_d_8_104" x="396" y="132" width="134" height="134" filterUnits="userSpaceOnUse" color-interpolation-filters="sRGB">
<feFlood flood-opacity="0" result="BackgroundImageFix"/>
<feColorMatrix in="SourceAlpha" type="matrix" values="0 0 0 0 0 0 0 0 0 0 0 0 0 0 0 0 0 0 127 0" result="hardAlpha"/>
<feMorphology radius="2" operator="dilate" in="SourceAlpha" result="effect1_dropShadow_8_104"/>
<feOffset/>
<feGaussianBlur stdDeviation="1"/>
<feComposite in2="hardAlpha" operator="out"/>
<feColorMatrix type="matrix" values="0 0 0 0 0 0 0 0 0 0 0 0 0 0 0 0 0 0 0.5 0"/>
<feBlend mode="normal" in2="BackgroundImageFix" result="effect1_dropShadow_8_104"/>
<feBlend mode="normal" in="SourceGraphic" in2="effect1_dropShadow_8_104" result="shape"/>
</filter>
<filter id="filter13_d_8_104" x="396" y="0" width="134" height="134" filterUnits="userSpaceOnUse" color-interpolation-filters="sRGB">
<feFlood flood-opacity="0" result="BackgroundImageFix"/>
<feColorMatrix in="SourceAlpha" type="matrix" values="0 0 0 0 0 0 0 0 0 0 0 0 0 0 0 0 0 0 127 0" result="hardAlpha"/>
<feMorphology radius="2" operator="dilate" in="SourceAlpha" result="effect1_dropShadow_8_104"/>
<feOffset/>
<feGaussianBlur stdDeviation="1"/>
<feComposite in2="hardAlpha" operator="out"/>
<feColorMatrix type="matrix" values="0 0 0 0 0 0 0 0 0 0 0 0 0 0 0 0 0 0 0.5 0"/>
<feBlend mode="normal" in2="BackgroundImageFix" result="effect1_dropShadow_8_104"/>
<feBlend mode="normal" in="SourceGraphic" in2="effect1_dropShadow_8_104" result="shape"/>
</filter>
<filter id="filter14_d_8_104" x="396" y="264" width="134" height="134" filterUnits="userSpaceOnUse" color-interpolation-filters="sRGB">
<feFlood flood-opacity="0" result="BackgroundImageFix"/>
<feColorMatrix in="SourceAlpha" type="matrix" values="0 0 0 0 0 0 0 0 0 0 0 0 0 0 0 0 0 0 127 0" result="hardAlpha"/>
<feMorphology radius="2" operator="dilate" in="SourceAlpha" result="effect1_dropShadow_8_104"/>
<feOffset/>
<feGaussianBlur stdDeviation="1"/>
<feComposite in2="hardAlpha" operator="out"/>
<feColorMatrix type="matrix" values="0 0 0 0 0 0 0 0 0 0 0 0 0 0 0 0 0 0 0.5 0"/>
<feBlend mode="normal" in2="BackgroundImageFix" result="effect1_dropShadow_8_104"/>
<feBlend mode="normal" in="SourceGraphic" in2="effect1_dropShadow_8_104" result="shape"/>
</filter>
<radialGradient id="paint0_radial_8_104" cx="0" cy="0" r="1" gradientUnits="userSpaceOnUse" gradientTransform="translate(67 199) rotate(90) scale(62)">
<stop offset="0.340481" stop-color="white" stop-opacity="0.6"/>
<stop offset="0.77923" stop-color="white"/>
<stop offset="1" stop-color="#D3D3D3" stop-opacity="0.1"/>
</radialGradient>
<radialGradient id="paint1_radial_8_104" cx="0" cy="0" r="1" gradientUnits="userSpaceOnUse" gradientTransform="translate(67 463) rotate(90) scale(62)">
<stop offset="0.340481" stop-color="white" stop-opacity="0.6"/>
<stop offset="0.77923" stop-color="white"/>
<stop offset="1" stop-color="#D3D3D3" stop-opacity="0.1"/>
</radialGradient>
<radialGradient id="paint2_radial_8_104" cx="0" cy="0" r="1" gradientUnits="userSpaceOnUse" gradientTransform="translate(67 67) rotate(90) scale(62)">
<stop offset="0.340481" stop-color="white" stop-opacity="0.6"/>
<stop offset="0.77923" stop-color="white"/>
<stop offset="1" stop-color="#D3D3D3" stop-opacity="0.1"/>
</radialGradient>
<radialGradient id="paint3_radial_8_104" cx="0" cy="0" r="1" gradientUnits="userSpaceOnUse" gradientTransform="translate(67 331) rotate(90) scale(62)">
<stop offset="0.340481" stop-color="white" stop-opacity="0.6"/>
<stop offset="0.77923" stop-color="white"/>
<stop offset="1" stop-color="#D3D3D3" stop-opacity="0.1"/>
</radialGradient>
<radialGradient id="paint4_radial_8_104" cx="0" cy="0" r="1" gradientUnits="userSpaceOnUse" gradientTransform="translate(331 199) rotate(90) scale(62)">
<stop offset="0.340481" stop-color="white" stop-opacity="0.6"/>
<stop offset="0.77923" stop-color="white"/>
<stop offset="1" stop-color="#D3D3D3" stop-opacity="0.1"/>
</radialGradient>
<radialGradient id="paint5_radial_8_104" cx="0" cy="0" r="1" gradientUnits="userSpaceOnUse" gradientTransform="translate(331 463) rotate(90) scale(62)">
<stop offset="0.340481" stop-color="white" stop-opacity="0.6"/>
<stop offset="0.77923" stop-color="white"/>
<stop offset="1" stop-color="#D3D3D3" stop-opacity="0.1"/>
</radialGradient>
<radialGradient id="paint6_radial_8_104" cx="0" cy="0" r="1" gradientUnits="userSpaceOnUse" gradientTransform="translate(331 67) rotate(90) scale(62)">
<stop offset="0.340481" stop-color="white" stop-opacity="0.6"/>
<stop offset="0.77923" stop-color="white"/>
<stop offset="1" stop-color="#D3D3D3" stop-opacity="0.1"/>
</radialGradient>
<radialGradient id="paint7_radial_8_104" cx="0" cy="0" r="1" gradientUnits="userSpaceOnUse" gradientTransform="translate(331 331) rotate(90) scale(62)">
<stop offset="0.340481" stop-color="white" stop-opacity="0.6"/>
<stop offset="0.77923" stop-color="white"/>
<stop offset="1" stop-color="#D3D3D3" stop-opacity="0.1"/>
</radialGradient>
<radialGradient id="paint8_radial_8_104" cx="0" cy="0" r="1" gradientUnits="userSpaceOnUse" gradientTransform="translate(199 199) rotate(90) scale(62)">
<stop offset="0.340481" stop-color="white" stop-opacity="0.6"/>
<stop offset="0.77923" stop-color="white"/>
<stop offset="1" stop-color="#D3D3D3" stop-opacity="0.1"/>
</radialGradient>
<radialGradient id="paint9_radial_8_104" cx="0" cy="0" r="1" gradientUnits="userSpaceOnUse" gradientTransform="translate(199 463) rotate(90) scale(62)">
<stop offset="0.340481" stop-color="white" stop-opacity="0.6"/>
<stop offset="0.77923" stop-color="white"/>
<stop offset="1" stop-color="#D3D3D3" stop-opacity="0.1"/>
</radialGradient>
<radialGradient id="paint10_radial_8_104" cx="0" cy="0" r="1" gradientUnits="userSpaceOnUse" gradientTransform="translate(199 67) rotate(90) scale(62)">
<stop offset="0.340481" stop-color="white" stop-opacity="0.6"/>
<stop offset="0.77923" stop-color="white"/>
<stop offset="1" stop-color="#D3D3D3" stop-opacity="0.1"/>
</radialGradient>
<radialGradient id="paint11_radial_8_104" cx="0" cy="0" r="1" gradientUnits="userSpaceOnUse" gradientTransform="translate(199 331) rotate(90) scale(62)">
<stop offset="0.340481" stop-color="white" stop-opacity="0.6"/>
<stop offset="0.77923" stop-color="white"/>
<stop offset="1" stop-color="#D3D3D3" stop-opacity="0.1"/>
</radialGradient>
<radialGradient id="paint12_radial_8_104" cx="0" cy="0" r="1" gradientUnits="userSpaceOnUse" gradientTransform="translate(463 199) rotate(90) scale(62)">
<stop offset="0.340481" stop-color="white" stop-opacity="0.6"/>
<stop offset="0.77923" stop-color="white"/>
<stop offset="1" stop-color="#D3D3D3" stop-opacity="0.1"/>
</radialGradient>
<radialGradient id="paint13_radial_8_104" cx="0" cy="0" r="1" gradientUnits="userSpaceOnUse" gradientTransform="translate(463 67) rotate(90) scale(62)">
<stop offset="0.340481" stop-color="white" stop-opacity="0.6"/>
<stop offset="0.77923" stop-color="white"/>
<stop offset="1" stop-color="#D3D3D3" stop-opacity="0.1"/>
</radialGradient>
<radialGradient id="paint14_radial_8_104" cx="0" cy="0" r="1" gradientUnits="userSpaceOnUse" gradientTransform="translate(463 331) rotate(90) scale(62)">
<stop offset="0.340481" stop-color="white" stop-opacity="0.6"/>
<stop offset="0.77923" stop-color="white"/>
<stop offset="1" stop-color="#D3D3D3" stop-opacity="0.1"/>
</radialGradient>
</defs>
</svg>
